<?xml version="1.0" encoding="UTF-8"?>
<svg id="Layer_2" data-name="Layer 2" xmlns="http://www.w3.org/2000/svg" viewBox="0 0 16.96 16">
  <defs>
    <style>
      .cls-1 {
        fill: #333;
        stroke-width: 0px;
      }
    </style>
  </defs>
  <g id="Layer_1-2" data-name="Layer 1">
    <path id="Vector" class="cls-1" d="M16.96,7.25v1.49c0,.89-.72,1.61-1.61,1.61-1.53,0-2.16,1.09-1.39,2.42.44.77.18,1.75-.59,2.2,0,0,0,0,0,0l-1.47.84c-.68.39-1.54.16-1.93-.51l-.09-.16c-.77-1.33-2.03-1.33-2.79,0l-.09.16c-.39.67-1.26.9-1.93.51l-1.47-.84c-.77-.44-1.04-1.42-.6-2.19,0,0,0,0,0,0,.77-1.33.14-2.42-1.39-2.42-.89,0-1.61-.72-1.61-1.61v-1.49c0-.89.72-1.61,1.61-1.61,1.53,0,2.16-1.09,1.39-2.41-.44-.77-.18-1.75.59-2.2l1.47-.84c.66-.39,1.51-.17,1.91.49,0,0,0,.01,0,.02l.09.16c.77,1.33,2.03,1.33,2.79,0l.09-.16c.39-.67,1.26-.9,1.93-.51l1.47.84c.77.44,1.04,1.42.6,2.19,0,0,0,0,0,0-.76,1.33-.14,2.42,1.4,2.42.89,0,1.61.72,1.62,1.61h0ZM11.23,8c0-1.52-1.23-2.76-2.76-2.76s-2.76,1.23-2.76,2.76,1.23,2.76,2.76,2.76c1.52,0,2.75-1.23,2.76-2.76Z"/>
  </g>
</svg>