<?xml version="1.0" encoding="UTF-8"?>
<svg id="Layer_2" data-name="Layer 2" xmlns="http://www.w3.org/2000/svg" viewBox="0 0 12.82 16">
  <defs>
    <style>
      .cls-1 {
        fill: #333;
        stroke-width: 0px;
      }
    </style>
  </defs>
  <g id="Layer_1-2" data-name="Layer 1">
    <g id="Group_25" data-name="Group 25">
      <path id="Vector" class="cls-1" d="M8.8,2.25c0,1.24-.61,2.25-1.35,2.25h-2.1c-.41-.04-.77-.29-.95-.66-.27-.49-.41-1.03-.4-1.59,0-1.24.61-2.25,1.35-2.25h2.1c.41.04.77.29.95.66.27.49.41,1.03.4,1.59Z"/>
      <path id="Vector-2" class="cls-1" d="M12.8,5.4v7.51c0,2.31-1.43,3.08-3.2,3.08H3.2c-1.77,0-3.2-.77-3.2-3.08v-7.51c0-1.64.62-2.46,1.54-2.82.21-.07.44.05.51.27,0,.02,0,.04.01.05.12.56.4,1.06.82,1.46.57.55,1.33.85,2.12.85h2.8c1.4.02,2.63-.94,2.94-2.31.03-.22.24-.37.45-.34.02,0,.04,0,.06.01.22.08.43.2.62.35.69.63,1.04,1.55.94,2.48ZM2.6,9.06c0,.32.28.58.6.58h3.2c.32,0,.58-.26.58-.58s-.26-.58-.58-.58h-3.2c-.32,0-.59.25-.6.58ZM10.2,12.15c0-.32-.28-.58-.6-.58H3.2c-.32,0-.58.26-.58.58s.26.58.58.58h6.4c.32,0,.59-.25.6-.58Z"/>
    </g>
  </g>
</svg>