<?xml version="1.0" encoding="UTF-8"?>
<svg id="Layer_2" data-name="Layer 2" xmlns="http://www.w3.org/2000/svg" viewBox="0 0 16.04 16.04">
  <defs>
    <style>
      .cls-1 {
        fill: #333;
        stroke-width: 0px;
      }
    </style>
  </defs>
  <g id="Layer_1-2" data-name="Layer 1">
    <g id="Group_27" data-name="Group 27">
      <path id="Vector" class="cls-1" d="M8.19,5.07c0,1.31-1.07,2.38-2.38,2.38s-2.38-1.07-2.38-2.38,1.07-2.38,2.38-2.38h0c1.31,0,2.38,1.07,2.38,2.38Z"/>
      <path id="Vector-2" class="cls-1" d="M16.02,4.67v6.7c.22,2.35-1.5,4.43-3.85,4.65-.27.03-.53.03-.8,0h-6.7c-1.76.15-3.43-.79-4.2-2.38C.16,12.93,0,12.15.02,11.37v-6.7C-.2,2.32,1.52.24,3.87.02c.27-.03.53-.03.8,0h6.7c2.35-.22,4.43,1.5,4.65,3.85.03.27.03.53,0,.8ZM14.82,8.51v-3.84c.22-1.69-.98-3.23-2.67-3.45-.26-.03-.52-.03-.78,0h-6.7c-1.69-.22-3.23.97-3.45,2.66-.03.26-.03.53,0,.79v6.7c0,.54.09,1.07.28,1.58l2.99-2c.65-.43,1.51-.39,2.11.11l.27.22c.66.54,1.6.54,2.26,0l3.33-2.86c.66-.54,1.6-.54,2.26,0l.1.09Z"/>
    </g>
  </g>
</svg>