<?xml version="1.0" encoding="UTF-8"?>
<svg id="Layer_2" data-name="Layer 2" xmlns="http://www.w3.org/2000/svg" viewBox="0 0 17.74 20">
  <defs>
    <style>
      .cls-1 {
        fill: #bdbfc0;
        stroke-width: 0px;
      }
    </style>
  </defs>
  <g id="Layer_1-2" data-name="Layer 1">
    <g id="bag-2">
      <path id="Vector" class="cls-1" d="M17.66,10.47l-.7,5.59c-.21,1.94-1,3.94-5.3,3.94h-5.58c-4.3,0-5.09-2-5.3-3.95L.08,10.48c-.24-1.24.06-2.52.83-3.52.83-.81,1.92-1.28,3.08-1.32v-.58C4.02,2.53,5.88.39,8.39.02c2.69-.26,5.08,1.71,5.34,4.4.01.15.02.31.02.46v.76c1.16.04,2.25.51,3.08,1.32.76,1,1.06,2.28.83,3.51ZM5.38,5.06v.52h6.98v-.7c0-1.92-1.56-3.49-3.48-3.49-.12,0-.23,0-.35.02-1.79.3-3.12,1.83-3.15,3.65h0ZM6.29,10.15c0-.56-.44-1.01-1-1.01-.56,0-1.01.44-1.01,1,0,.56.44,1.01,1,1.01h.01c.55,0,1-.45,1-1,0,0,0,0,0,0h0ZM13.29,10.15c0-.56-.44-1.01-1-1.01-.56,0-1.01.44-1.01,1,0,.56.44,1.01,1,1.01h.01c.55,0,1-.45,1-1,0,0,0,0,0,0h0Z"/>
    </g>
  </g>
</svg>