<?xml version="1.0" encoding="UTF-8"?>
<svg id="Layer_2" data-name="Layer 2" xmlns="http://www.w3.org/2000/svg" viewBox="0 0 11.92 16">
  <defs>
    <style>
      .cls-1 {
        fill: #333;
        stroke-width: 0px;
      }
    </style>
  </defs>
  <g id="Layer_1-2" data-name="Layer 1">
    <path id="Vector" class="cls-1" d="M4.11,15.93c-.3-.11-.8-.48-.8-1.63v-4.8h-1.75c-.6.08-1.19-.21-1.48-.74-.21-.57-.05-1.21.41-1.61L6.14.76C6.89-.11,7.51-.05,7.81.06c.3.11.8.48.8,1.63v4.8h1.74c.6-.09,1.19.21,1.48.74.21.57.04,1.21-.42,1.61l-5.62,6.4c-.31.43-.79.71-1.32.76-.12,0-.24-.02-.36-.07ZM6.98,1.5L1.34,7.9c-.12.11-.2.26-.24.42.14.06.3.09.46.08h2.3c.31,0,.56.25.56.56v5.36c-.02.2.02.4.1.58.16-.11.3-.24.42-.39l5.63-6.4c.12-.11.2-.26.24-.42-.14-.06-.3-.09-.46-.08h-2.3c-.31,0-.56-.25-.56-.56V1.69c.02-.2-.02-.4-.1-.58-.16.11-.3.24-.42.39Z"/>
  </g>
</svg>