<?xml version="1.0" encoding="UTF-8"?>
<svg id="Layer_2" data-name="Layer 2" xmlns="http://www.w3.org/2000/svg" viewBox="0 0 15.01 15.02">
  <defs>
    <style>
      .cls-1 {
        fill: #333;
        stroke-width: 0px;
      }
    </style>
  </defs>
  <g id="Layer_1-2" data-name="Layer 1">
    <path id="icon" class="cls-1" d="M5.24,14.09v-2.29c.02-.6.52-1.08,1.12-1.06h2.27c.3,0,.58.11.8.31.21.19.33.47.33.75v2.3c0,.25.1.48.28.65.19.17.43.27.69.27h1.55c.72,0,1.41-.26,1.93-.75.51-.47.8-1.13.8-1.82v-6.54c0-.56-.27-1.09-.71-1.43L9.03.51c-.93-.7-2.21-.67-3.12.05L.77,4.48c-.47.33-.75.86-.77,1.43v6.53c.04,1.46,1.26,2.62,2.73,2.58h1.51c.52.01.96-.39.98-.91h.02Z"/>
  </g>
</svg>