<?xml version="1.0" encoding="UTF-8"?>
<svg id="Layer_2" data-name="Layer 2" xmlns="http://www.w3.org/2000/svg" viewBox="0 0 6.55 7.42">
  <defs>
    <style>
      .cls-1 {
        fill: #fff;
        stroke-width: 0px;
      }
    </style>
  </defs>
  <g id="Layer_1-2" data-name="Layer 1">
    <g id="Group_80" data-name="Group 80">
      <path id="icon_delete" data-name="icon delete" class="cls-1" d="M1.87,7.4c-.58,0-1.05-.47-1.07-1.05-.11-1.06-.3-3.55-.31-3.58,0-.08.02-.15.07-.21.05-.05.12-.09.19-.09h5.04c.07,0,.14.03.19.09.05.06.07.13.07.21,0,.03-.19,2.53-.3,3.58-.01.59-.5,1.06-1.09,1.05-.47.01-.93.01-1.38.01-.48,0-.95,0-1.41-.01ZM.26,1.89C.11,1.88,0,1.76,0,1.61v-.14c0-.15.11-.27.26-.27h1.06c.22,0,.41-.16.45-.38l.06-.25c.07-.33.36-.57.7-.57h1.5c.33,0,.61.24.69.56l.06.27c.04.22.23.37.45.38h1.06c.15,0,.26.12.26.27h0v.14c0,.15-.11.27-.26.27H.26Z"/>
    </g>
  </g>
</svg>