<?xml version="1.0" encoding="UTF-8"?>
<svg id="Layer_2" data-name="Layer 2" xmlns="http://www.w3.org/2000/svg" viewBox="0 0 15 14.15">
  <defs>
    <style>
      .cls-1 {
        fill: #333;
        stroke-width: 0px;
      }
    </style>
  </defs>
  <g id="Layer_1-2" data-name="Layer 1">
    <g id="Group_1" data-name="Group 1">
      <path id="Vector" class="cls-1" d="M4.13,14.01c-.39-.21-.64-.61-.64-1.06v-.97C1.45,11.85-.11,10.11,0,8.06V3.95C-.1,1.87,1.5.11,3.58,0c.15,0,.29,0,.44,0h6.97c2.07-.14,3.87,1.43,4,3.51,0,.15.01.29,0,.44v4.11c.1,2.08-1.49,3.84-3.57,3.95-.15,0-.29,0-.44,0h-2.63l-2.97,1.95c-.38.24-.86.26-1.26.05ZM1.05,3.94v4.11c-.09,1.52,1.06,2.82,2.58,2.92.13,0,.25,0,.38,0,.29,0,.52.23.52.51v1.46c0,.06.03.12.09.15.06.03.13.03.18,0l3.1-2.03c.09-.06.19-.09.29-.09h2.79c1.52.12,2.84-1.02,2.96-2.53,0-.13.01-.25,0-.38V3.94c.09-1.52-1.06-2.82-2.58-2.92-.13,0-.25,0-.38,0h-6.98c-1.52-.12-2.84,1.02-2.96,2.53,0,.13-.01.25,0,.38Z"/>
      <g id="Group_28" data-name="Group 28">
        <path id="Vector-2" class="cls-1" d="M6.87,6.78v-.18c.02-.67.39-1.29.98-1.62.31-.21.41-.35.41-.57,0-.42-.34-.76-.76-.76s-.76.34-.76.76h0c0,.34-.28.62-.62.62-.34,0-.62-.28-.62-.62,0-1.11.9-2.01,2.01-2.01s2.01.9,2.01,2.01c-.02.66-.38,1.27-.96,1.6-.33.22-.42.36-.42.59v.18c0,.35-.28.62-.62.62s-.62-.28-.62-.62h0Z"/>
        <path id="Vector-3" class="cls-1" d="M6.87,8.85c0-.34.28-.62.62-.62.35,0,.62.28.62.62s-.28.62-.62.62-.62-.28-.62-.62Z"/>
      </g>
    </g>
  </g>
</svg>