<?xml version="1.0" encoding="UTF-8"?>
<svg id="Layer_2" data-name="Layer 2" xmlns="http://www.w3.org/2000/svg" viewBox="0 0 19.95 18.94">
  <defs>
    <style>
      .cls-1 {
        fill: #333;
        stroke-width: 0px;
      }
    </style>
  </defs>
  <g id="Layer_1-2" data-name="Layer 1">
    <g id="log_out" data-name="log out">
      <path id="log_out_icon" data-name="log out icon" class="cls-1" d="M4.32,18.94C1.97,18.97.04,17.09,0,14.73c0-.41.34-.73.75-.73h0c.41,0,.74.32.75.73h0c.02,1.54,1.28,2.77,2.82,2.76h4.73c1.54.02,2.8-1.21,2.82-2.74v-.89c0-.41.34-.75.75-.75s.75.34.75.75v.89c-.03,2.35-1.96,4.23-4.31,4.2h-4.74ZM15.84,12.74c-.28-.27-.29-.73-.02-1.01,0,0,0,0,0,0l.02-.02,1.56-1.51H7.54c-.4,0-.73-.33-.73-.73s.33-.73.73-.73h11.67c.3,0,.57.18.69.45.12.27.05.59-.16.8l-2.84,2.76c-.29.28-.76.28-1.06,0h0ZM0,11.42v-7.22C.04,1.85,1.97-.03,4.32,0h4.73c2.36-.03,4.29,1.86,4.32,4.21v.88c0,.41-.34.75-.75.75s-.75-.34-.75-.75v-.88c-.02-1.54-1.28-2.77-2.82-2.76h-4.73c-1.53-.02-2.79,1.21-2.82,2.74v7.22c0,.41-.34.75-.75.75s-.75-.34-.75-.75h0ZM16.56,7.92l-.72-.69c-.28-.27-.29-.73-.02-1.01l.02-.02c.29-.29.76-.29,1.06,0l.71.69c.29.27.3.73.02,1.01,0,0,0,0,0,0l-.02.02c-.29.29-.76.29-1.06,0h0Z"/>
    </g>
  </g>
</svg>