<?xml version="1.0" encoding="UTF-8"?>
<svg id="Layer_2" data-name="Layer 2" xmlns="http://www.w3.org/2000/svg" viewBox="0 0 18.81 21.15">
  <defs>
    <style>
      .cls-1 {
        fill: none;
        stroke: #bdbfc0;
        stroke-miterlimit: 10;
      }
    </style>
  </defs>
  <g id="Layer_1-2" data-name="Layer 1">
    <g>
      <path id="Vector" class="cls-1" d="M9.41,4.94v3.33"/>
      <path id="Vector-2" class="cls-1" d="M16.1,7.16v2.1c.03.8.25,1.58.63,2.28l1.27,2.12c.63,1.05.29,2.41-.76,3.05-.14.08-.29.15-.44.2-4.78,1.59-9.95,1.59-14.73,0-1.14-.31-1.8-1.49-1.49-2.62.06-.22.16-.44.29-.63l1.27-2.12c.38-.7.6-1.48.63-2.28v-2.1c0-3.68,2.99-6.66,6.67-6.66,3.68,0,6.66,2.98,6.66,6.66Z"/>
      <path id="Vector-3" class="cls-1" d="M12.74,17.32c0,1.84-1.49,3.32-3.33,3.33-.88,0-1.73-.36-2.35-.98-.62-.62-.98-1.47-.98-2.35"/>
    </g>
  </g>
</svg>