<?xml version="1.0" encoding="UTF-8"?>
<svg id="Layer_2" data-name="Layer 2" xmlns="http://www.w3.org/2000/svg" viewBox="0 0 13.73 16">
  <defs>
    <style>
      .cls-1 {
        fill: #333;
        stroke-width: 0px;
      }
    </style>
  </defs>
  <g id="Layer_1-2" data-name="Layer 1">
    <path id="Vector" class="cls-1" d="M13.67,8.38l-.55,4.47c-.16,1.55-.77,3.15-4.1,3.15h-4.32c-3.33,0-3.94-1.6-4.1-3.16L.06,8.39c-.19-.99.05-2.01.64-2.82.63-.64,1.48-1.02,2.38-1.06v-.46c0-2,1.44-3.7,3.41-4.03,1.07-.11,2.13.26,2.91,1,.79.75,1.24,1.8,1.24,2.89v.61c.9.04,1.75.41,2.38,1.06.59.81.83,1.82.65,2.81ZM4.16,4.05v.42h5.4v-.56c0-.78-.32-1.53-.88-2.06-.56-.53-1.32-.79-2.08-.71-1.41.26-2.43,1.49-2.44,2.92ZM4.86,8.12c-.01-.43-.37-.77-.8-.76s-.77.37-.76.8c.01.42.35.75.77.76h0c.44,0,.78-.36.78-.8h0ZM10.28,8.12c-.01-.43-.37-.77-.8-.76s-.77.37-.76.8c.01.42.35.75.77.76h.01c.43,0,.78-.37.77-.8h0Z"/>
  </g>
</svg>