<?xml version="1.0" encoding="UTF-8"?>
<svg id="Layer_2" data-name="Layer 2" xmlns="http://www.w3.org/2000/svg" viewBox="0 0 16 16">
  <defs>
    <style>
      .cls-1 {
        fill: #333;
        stroke-width: 0px;
      }
    </style>
  </defs>
  <g id="Layer_1-2" data-name="Layer 1">
    <g>
      <path id="Vector" class="cls-1" d="M14.03,7.49h-3.56c-1.4,0-1.97-.49-1.97-1.75V1.74C8.5.5,9.06,0,10.47,0h3.56C15.43,0,16,.5,16,1.75v4.01c0,1.25-.57,1.75-1.97,1.74Z"/>
      <g id="Vector-2">
        <path class="cls-1" d="M14.03,15c.58,0,.75-.12.8-.16.05-.05.16-.23.16-.8v-3.56c0-.58-.12-.75-.16-.8-.05-.05-.23-.16-.8-.16h-3.56c-.58,0-.75.12-.8.16-.05.05-.16.23-.16.8v3.56c0,.58.12.75.16.8.05.05.23.16.8.16h3.56M14.03,16h-3.56c-1.4,0-1.97-.56-1.97-1.97v-3.56c0-1.4.56-1.97,1.97-1.97h3.56c1.4,0,1.97.56,1.97,1.97v3.56c0,1.4-.56,1.97-1.97,1.97Z"/>
      </g>
      <path id="Vector-4" class="cls-1" d="M5.53,16H1.97c-1.4,0-1.97-.57-1.97-1.97v-3.56c0-1.4.56-1.97,1.97-1.97h3.56c1.4,0,1.97.56,1.97,1.97v3.56c0,1.4-.57,1.97-1.97,1.97Z"/>
      <path class="cls-1" d="M5.57,6.49c.62,0,.78-.12.81-.15.06-.05.12-.23.12-.59V1.75c0-.36-.06-.54-.12-.59-.03-.03-.21-.15-.85-.15H1.97c-.64,0-.82.13-.85.15-.06.05-.12.24-.12.59v4c0,.36.06.54.12.59.03.03.2.15.85.15h3.6M5.57,7.49s-.02,0-.04,0H1.97c-1.4,0-1.97-.49-1.97-1.75V1.75C0,.5.56,0,1.97,0h3.56c1.4,0,1.97.5,1.97,1.75v4.01c0,1.23-.56,1.74-1.93,1.74Z"/>
    </g>
  </g>
</svg>