<?xml version="1.0" encoding="UTF-8"?>
<svg id="Layer_2" data-name="Layer 2" xmlns="http://www.w3.org/2000/svg" viewBox="0 0 15.03 14.97">
  <defs>
    <style>
      .cls-1 {
        stroke-width: 0px;
      }
    </style>
  </defs>
  <g id="Layer_1-2" data-name="Layer 1">
    <path id="search_icon" data-name="search icon" class="cls-1" d="M14.84,13.93l-2.58-2.52h0l-.06-.09c-.24-.23-.62-.23-.85,0h0c-2.22,2-5.56,2.11-7.9.25-2.32-1.82-2.88-5.11-1.28-7.6C3.8,1.47,7.01.53,9.73,1.75c2.72,1.17,4.11,4.2,3.24,7.02-.06.2-.01.43.14.58.15.16.37.22.58.17.21-.04.38-.2.45-.4h0c1.04-3.35-.56-6.96-3.76-8.42C7.17-.81,3.34.18,1.27,3.06-.76,5.92-.32,9.84,2.29,12.18c2.64,2.38,6.6,2.54,9.42.39l2.29,2.23c.24.23.62.23.85,0,.23-.23.24-.6.01-.83,0,0,0,0,0,0h0s-.01-.04-.01-.04Z"/>
  </g>
</svg>