<?xml version="1.0" encoding="UTF-8"?>
<svg id="Layer_2" data-name="Layer 2" xmlns="http://www.w3.org/2000/svg" viewBox="0 0 16 14.96">
  <defs>
    <style>
      .cls-1 {
        fill: #333;
        stroke-width: 0px;
      }
    </style>
  </defs>
  <g id="Layer_1-2" data-name="Layer 1">
    <g id="Group_7" data-name="Group 7">
      <path id="icon" class="cls-1" d="M0,12.4c0-2.03,2.71-2.54,5.88-2.54s5.88.53,5.88,2.56-2.71,2.54-5.88,2.54c-3.19,0-5.88-.53-5.88-2.56ZM13.31,12.8c.12-1.74-.86-3.38-2.45-4.09-.02,0-.03-.03-.03-.04,0-.01.02-.02.03-.02,1.01-.02,2.01.07,3,.27.81.07,1.55.52,1.97,1.22.24.49.24,1.07,0,1.56-.43.93-1.8,1.23-2.33,1.31h-.02c-.09,0-.17-.08-.17-.17,0,0,0-.01,0-.02h0ZM1.99,3.96C1.97,1.8,3.7.02,5.86,0h.02c2.16.01,3.9,1.77,3.89,3.93h0v.03c.02,2.16-1.71,3.93-3.87,3.96h-.02c-2.16-.01-3.9-1.78-3.89-3.94h0v-.02ZM10.98,7.33c-.15,0-.3-.02-.45-.04-.08-.01-.13-.09-.12-.17,0-.02.01-.04.02-.06,1.24-1.88,1.21-4.33-.08-6.18-.02-.03-.03-.07-.01-.1.02-.03.05-.04.08-.05.22-.04.44-.07.66-.07,1.82.02,3.29,1.5,3.27,3.32,0,.3-.03.61-.11.9-.37,1.45-1.68,2.46-3.17,2.45h-.09Z"/>
    </g>
  </g>
</svg>