<?xml version="1.0" encoding="UTF-8"?>
<svg id="Layer_2" data-name="Layer 2" xmlns="http://www.w3.org/2000/svg" viewBox="0 0 15 16.99">
  <defs>
    <style>
      .cls-1 {
        fill: #8d7dff;
        stroke-width: 0px;
      }
    </style>
  </defs>
  <g id="Layer_1-2" data-name="Layer 1">
    <path id="icon_delete" data-name="icon delete" class="cls-1" d="M4.28,16.96c-1.33,0-2.41-1.07-2.44-2.4-.26-2.42-.7-8.14-.7-8.2,0-.17.05-.34.16-.47.11-.13.27-.2.44-.2h11.55c.17,0,.32.08.44.2.11.13.17.3.15.47,0,.06-.44,5.78-.7,8.2-.03,1.35-1.15,2.43-2.5,2.4-1.07.02-2.13.03-3.17.03-1.1,0-2.18,0-3.22-.03ZM.6,4.33C.26,4.31,0,4.04,0,3.7v-.32c0-.34.26-.62.59-.62,0,0,0,0,0,0h2.43c.5,0,.93-.37,1.03-.86l.13-.58c.16-.75.82-1.3,1.59-1.31h3.44c.76.02,1.41.54,1.58,1.27l.14.62c.1.5.53.86,1.03.86h2.43c.34,0,.6.28.6.62h0v.33c0,.34-.26.61-.59.62H.6Z"/>
  </g>
</svg>