<?xml version="1.0" encoding="UTF-8"?>
<svg id="Layer_2" data-name="Layer 2" xmlns="http://www.w3.org/2000/svg" viewBox="0 0 15 16.01">
  <defs>
    <style>
      .cls-1 {
        fill: #fff;
        stroke-width: 0px;
      }
    </style>
  </defs>
  <g id="Layer_1-2" data-name="Layer 1">
    <path id="icon_upload" data-name="icon upload" class="cls-1" d="M3.34,16.01C1.52,15.97.05,14.5,0,12.68v-3.99c-.03-1.82,1.36-3.34,3.17-3.47h3.75v4.7c0,.32.24.58.56.59.3,0,.56-.21.59-.51v-.08s0-4.7,0-4.7h3.59c1.82.04,3.29,1.5,3.34,3.32v3.98c.04,1.82-1.36,3.35-3.17,3.48H3.34ZM6.93,5.22v-3.19l-1.19,1.23c-.22.23-.58.23-.8.01,0,0,0,0-.01-.01-.21-.21-.23-.53-.06-.77l.06-.07L7.09.18C7.2.06,7.35,0,7.5,0c.12,0,.24.04.34.12l.07.06,2.18,2.25c.22.24.22.61-.01.84-.2.2-.51.22-.74.06l-.06-.06-1.19-1.23v3.19h-1.16Z"/>
  </g>
</svg>